<svg width="375" height="135" viewBox="0 0 375 135" fill="none" xmlns="http://www.w3.org/2000/svg">
<path d="M71.0971 124.501C68.1607 127.592 64.6198 130.047 60.6945 131.712C56.7692 133.376 52.5434 134.216 48.2798 134.178H1.05598C0.994488 134.175 0.936716 134.148 0.894503 134.103C0.852289 134.058 0.82883 133.999 0.828937 133.937V13.4937C0.827703 13.447 0.840857 13.4012 0.866611 13.3623C0.892365 13.3234 0.929469 13.2934 0.972878 13.2763C1.01629 13.2593 1.0639 13.256 1.10923 13.267C1.15456 13.2779 1.19542 13.3026 1.22625 13.3376L70.3308 82.428C75.8776 87.9789 79.0565 95.4639 79.1994 103.31C79.3423 111.156 76.4381 118.752 71.0971 124.501V124.501Z" fill="#FFBE3C"/>
<g opacity="0.2">
<path opacity="0.2" d="M79.1994 54.8573C79.1553 58.4432 78.3391 61.9774 76.8062 65.2194C75.2734 68.4615 73.0599 71.3351 70.3166 73.6447L0.828857 134.505V28.2372H48.9325C56.7771 28.1697 64.3836 30.9302 70.3591 36.0132C73.1019 38.333 75.3116 41.2176 76.8373 44.4698C78.363 47.722 79.1687 51.2652 79.1994 54.8573Z" fill="black"/>
<path opacity="0.2" d="M79.1994 54.8573C79.1553 58.4432 78.3391 61.9774 76.8062 65.2194C75.2734 68.4615 73.0599 71.3351 70.3166 73.6447L0.828857 134.505V28.2372H48.9325C56.7771 28.1697 64.3836 30.9302 70.3591 36.0132C73.1019 38.333 75.3116 41.2176 76.8373 44.4698C78.363 47.722 79.1687 51.2652 79.1994 54.8573Z" fill="black"/>
<path opacity="0.2" d="M79.1994 54.8573C79.1553 58.4432 78.3391 61.9774 76.8062 65.2194C75.2734 68.4615 73.0599 71.3351 70.3166 73.6447L0.828857 134.505V28.2372H48.9325C56.7771 28.1697 64.3836 30.9302 70.3591 36.0132C73.1019 38.333 75.3116 41.2176 76.8373 44.4698C78.363 47.722 79.1687 51.2652 79.1994 54.8573Z" fill="black"/>
<path opacity="0.2" d="M79.1994 54.8573C79.1553 58.4432 78.3391 61.9774 76.8062 65.2194C75.2734 68.4615 73.0599 71.3351 70.3166 73.6447L0.828857 134.505V28.2372H48.9325C56.7771 28.1697 64.3836 30.9302 70.3591 36.0132C73.1019 38.333 75.3116 41.2176 76.8373 44.4698C78.363 47.722 79.1687 51.2652 79.1994 54.8573Z" fill="black"/>
</g>
<path d="M79.1993 43.5761C79.2048 47.5569 78.4228 51.4995 76.8983 55.1769C75.3738 58.8542 73.1369 62.1936 70.3164 65.0028L0.786133 134.533V13.2666H48.9323C56.9635 13.2779 64.6619 16.4762 70.3369 22.1591C76.0118 27.842 79.1993 35.5449 79.1993 43.5761Z" fill="#18E4CD"/>
<path d="M116.419 84.4146H119.442L134.511 120.684H130.723L126.026 109.332H109.736L105.082 120.684H101.25L116.419 84.4146ZM125.217 106.537L117.909 88.6006L110.502 106.537H125.217Z" fill="white"/>
<path d="M143.295 91.0554V120.684H139.747V84.4146H142.5L166.509 114.611V84.4713H170.085V120.684H166.978L143.295 91.0554Z" fill="white"/>
<path d="M128.298 42.268C130.688 42.828 132.573 43.9853 133.954 45.74C135.373 47.4946 136.082 49.5293 136.082 51.844C136.082 55.2413 134.944 57.892 132.666 59.796C130.426 61.7 127.197 62.652 122.978 62.652H104.554V23.06H122.53C126.562 23.06 129.68 23.9373 131.882 25.692C134.085 27.4466 135.186 29.948 135.186 33.196C135.186 35.5853 134.552 37.5826 133.282 39.188C132.013 40.756 130.352 41.7826 128.298 42.268ZM114.13 39.244H120.402C123.725 39.244 125.386 37.8253 125.386 34.988C125.386 32.1506 123.688 30.732 120.29 30.732H114.13V39.244ZM120.962 54.868C124.509 54.868 126.282 53.412 126.282 50.5C126.282 49.0813 125.816 47.98 124.882 47.196C123.949 46.3746 122.624 45.964 120.906 45.964H114.13V54.868H120.962ZM149.596 54.644H164.044V62.652H139.124V55.092L152.564 39.356H139.348V31.404H163.484V38.964L149.596 54.644Z" fill="white"/>
<path d="M190.391 84.4146H193.399L208.469 120.684H204.694L199.997 109.332H183.736L179.096 120.684H175.222L190.391 84.4146ZM199.174 106.537L191.867 88.6006L184.46 106.537H199.174Z" fill="white"/>
<path d="M213.69 120.684V84.4146H217.266V117.519H238.21V120.684H213.69Z" fill="white"/>
<path d="M237.487 84.4147L249.336 103.926L261.298 84.4147H265.172L251.124 107.204V120.684H247.59V107.09L233.599 84.3864L237.487 84.4147Z" fill="white"/>
<path d="M296.29 87.5789H283.363V120.684H279.787V87.5789H266.86V84.4146H296.29V87.5789Z" fill="white"/>
<path d="M301.696 120.684V84.4146H305.272V120.684H301.696Z" fill="white"/>
<path d="M311.97 102.294C311.978 100.073 312.367 97.8704 313.119 95.7808C313.864 93.6546 315 91.6863 316.468 89.9772C317.974 88.2443 319.813 86.8306 321.874 85.8196C324.15 84.7178 326.654 84.1685 329.182 84.2161C332.104 84.1262 334.989 84.8905 337.483 86.4155C339.693 87.7729 341.458 89.7455 342.563 92.0915L339.725 93.8226C339.201 92.7041 338.486 91.6859 337.611 90.8144C336.819 90.0606 335.926 89.4207 334.957 88.9129C334.024 88.4141 333.026 88.0464 331.992 87.8203C331.004 87.5974 329.996 87.4832 328.983 87.4798C326.978 87.4418 324.994 87.9 323.208 88.8136C321.562 89.6623 320.112 90.8466 318.951 92.2901C317.803 93.7272 316.928 95.3624 316.369 97.1147C315.795 98.8692 315.503 100.703 315.503 102.549C315.49 104.523 315.847 106.482 316.553 108.325C317.206 110.105 318.166 111.758 319.391 113.206C320.569 114.606 322.017 115.754 323.648 116.583C325.32 117.423 327.169 117.852 329.04 117.832C330.097 117.827 331.149 117.699 332.176 117.449C333.266 117.189 334.313 116.773 335.284 116.214C336.321 115.653 337.277 114.951 338.122 114.128C339.004 113.246 339.729 112.219 340.264 111.092L343.23 112.624C342.655 113.97 341.821 115.19 340.775 116.214C339.727 117.249 338.543 118.137 337.256 118.854C335.958 119.567 334.575 120.115 333.141 120.485C331.751 120.851 330.321 121.042 328.884 121.053C326.503 121.076 324.154 120.511 322.045 119.407C319.993 118.356 318.17 116.909 316.681 115.15C315.172 113.379 313.985 111.357 313.176 109.176C312.358 106.975 311.949 104.642 311.97 102.294V102.294Z" fill="white"/>
<path d="M370.616 91.2115C369.491 89.9634 368.092 88.9922 366.529 88.3735C364.678 87.6238 362.694 87.257 360.697 87.2951C357.505 87.2951 355.163 87.9052 353.702 89.1114C352.98 89.7066 352.406 90.4609 352.024 91.3151C351.642 92.1694 351.464 93.1004 351.502 94.0353C351.465 94.9658 351.67 95.8901 352.098 96.7171C352.532 97.4684 353.153 98.0942 353.9 98.5334C354.888 99.1127 355.947 99.5611 357.051 99.8673C358.328 100.236 359.888 100.619 361.563 100.988C363.333 101.365 365.081 101.839 366.799 102.407C368.207 102.843 369.542 103.489 370.758 104.323C371.809 105.056 372.67 106.029 373.27 107.161C373.89 108.436 374.187 109.844 374.135 111.262C374.159 112.737 373.828 114.197 373.17 115.519C372.525 116.742 371.595 117.793 370.46 118.584C369.208 119.449 367.801 120.066 366.316 120.4C362.869 121.207 359.282 121.206 355.836 120.396C352.39 119.586 349.177 117.99 346.451 115.732L348.338 112.823C349.048 113.545 349.828 114.196 350.665 114.767C351.619 115.396 352.631 115.933 353.688 116.37C354.831 116.843 356.02 117.199 357.235 117.434C358.548 117.695 359.884 117.823 361.222 117.817C363.579 117.951 365.926 117.414 367.991 116.271C368.76 115.771 369.383 115.078 369.799 114.261C370.215 113.444 370.409 112.532 370.361 111.616C370.391 110.625 370.15 109.644 369.665 108.779C369.148 107.953 368.437 107.266 367.594 106.778C366.516 106.167 365.367 105.691 364.174 105.359C362.755 104.947 361.222 104.536 359.42 104.124C357.618 103.713 355.844 103.23 354.411 102.705C353.118 102.304 351.897 101.7 350.793 100.917C349.846 100.257 349.08 99.3686 348.565 98.3348C348.036 97.174 347.783 95.9062 347.827 94.6312C347.799 93.0883 348.125 91.5595 348.778 90.1614C349.39 88.8694 350.311 87.7483 351.46 86.8978C352.689 85.9907 354.074 85.3173 355.546 84.9112C357.239 84.4269 358.994 84.1926 360.754 84.2159C362.956 84.1788 365.146 84.5542 367.21 85.3227C369.088 86.0439 370.826 87.0858 372.347 88.4019L370.616 91.2115Z" fill="white"/>
<path d="M366.196 54.68C365.73 54.68 365.269 54.5882 364.838 54.4099C364.408 54.2317 364.017 53.9704 363.687 53.6409C363.358 53.3115 363.097 52.9205 362.918 52.4901C362.74 52.0597 362.648 51.5984 362.648 51.1325V30.7843H342.783C341.842 30.7843 340.939 30.4105 340.274 29.7452C339.609 29.08 339.235 28.1776 339.235 27.2368C339.235 26.2959 339.609 25.3936 340.274 24.7284C340.939 24.0631 341.842 23.6893 342.783 23.6893H369.743V51.1325C369.743 51.5984 369.652 52.0597 369.473 52.4901C369.295 52.9205 369.034 53.3115 368.704 53.6409C368.375 53.9704 367.984 54.2317 367.553 54.4099C367.123 54.5882 366.662 54.68 366.196 54.68V54.68Z" fill="white"/>
<path d="M336.589 60.5331C335.89 60.5194 335.21 60.3001 334.634 59.9026C334.059 59.505 333.613 58.9468 333.353 58.2976C333.093 57.6484 333.029 56.9369 333.171 56.2519C333.312 55.5669 333.652 54.9387 334.148 54.4457L362.755 25.7396C363.064 25.34 363.455 25.011 363.901 24.7746C364.348 24.5382 364.839 24.3999 365.344 24.3689C365.848 24.3379 366.353 24.4149 366.825 24.5948C367.297 24.7746 367.725 25.0533 368.081 25.412C368.436 25.7707 368.711 26.2012 368.887 26.6747C369.063 27.1483 369.136 27.6539 369.1 28.1578C369.065 28.6617 368.922 29.1522 368.682 29.5966C368.442 30.0409 368.11 30.4289 367.707 30.7344L339.101 59.4547C338.775 59.7929 338.385 60.0625 337.954 60.2477C337.522 60.4329 337.058 60.53 336.589 60.5331V60.5331Z" fill="white"/>
</svg>
